<svg width="174" height="17" viewBox="0 0 174 17" fill="none" xmlns="http://www.w3.org/2000/svg">
<path d="M5.40666 16.9486V3.19571H0V0H14.7225V3.19571H9.31581V16.9478H5.40582L5.40666 16.9486Z" fill="white"/>
<path d="M27.2292 17C25.9339 17 24.7403 16.7886 23.6482 16.3659C22.5561 15.9432 21.6043 15.3487 20.7925 14.5815C19.9808 13.8144 19.3529 12.9142 18.9081 11.881C18.4632 10.8477 18.2407 9.72102 18.2407 8.5C18.2407 7.27898 18.4632 6.13206 18.9081 5.10724C19.3529 4.08243 19.9808 3.18561 20.7925 2.41847C21.6034 1.65133 22.5519 1.05682 23.6365 0.63409C24.721 0.211363 25.9104 0 27.2057 0C28.5009 0 29.6903 0.207995 30.7748 0.6223C31.8594 1.03745 32.8071 1.62859 33.6188 2.39489C34.4296 3.16203 35.0584 4.06221 35.5033 5.09545C35.9481 6.12869 36.1706 7.26382 36.1706 8.5C36.1706 9.73618 35.9481 10.8519 35.5033 11.8928C35.0584 12.9336 34.4305 13.838 33.6188 14.6051C32.8071 15.3723 31.8594 15.9634 30.7748 16.3777C29.6903 16.792 28.5084 17 27.2292 17ZM27.2057 13.7832C27.9393 13.7832 28.6134 13.6544 29.2303 13.3959C29.8465 13.1374 30.3887 12.7702 30.8571 12.2919C31.3255 11.8144 31.6881 11.2587 31.9458 10.6246C32.2035 9.99049 32.332 9.2823 32.332 8.5C32.332 7.7177 32.2035 7.00867 31.9458 6.37458C31.6881 5.74049 31.3255 5.18556 30.8571 4.70725C30.3887 4.22979 29.8465 3.8618 29.2303 3.60328C28.6134 3.34476 27.9393 3.21592 27.2057 3.21592C26.472 3.21592 25.7929 3.34476 25.1692 3.60328C24.5447 3.8618 24.0025 4.22979 23.5425 4.70725C23.0825 5.18471 22.7232 5.74049 22.4655 6.37458C22.2078 7.00867 22.0794 7.71686 22.0794 8.5C22.0794 9.28314 22.2078 9.99133 22.4655 10.6246C22.7232 11.2587 23.0816 11.8144 23.5425 12.2919C24.0025 12.7694 24.5447 13.1374 25.1692 13.3959C25.7929 13.6544 26.472 13.7832 27.2057 13.7832Z" fill="white"/>
<path d="M39.689 16.9486V0H47.0019C48.5146 0 49.8173 0.245889 50.9119 0.738508C52.0057 1.23113 52.851 1.93679 53.4461 2.85719C54.0413 3.77759 54.3392 4.86641 54.3392 6.12616C54.3392 7.38592 54.0413 8.49495 53.4461 9.40693C52.851 10.3189 52.0057 11.0254 50.9119 11.5256C49.8173 12.0258 48.5146 12.2759 47.0019 12.2759H41.837L43.6233 10.5084V16.9486H39.689ZM43.6233 10.9437L41.837 9.07935H46.7845C47.9748 9.07935 48.8763 8.82168 49.4874 8.30464C50.0985 7.78844 50.4049 7.06172 50.4049 6.12532C50.4049 5.18892 50.0994 4.46642 49.4874 3.95864C48.8755 3.45002 47.9748 3.19571 46.7845 3.19571H41.837L43.6233 1.33134V10.9437Z" fill="white"/>
<path d="M73.5038 16.9107C72.2002 16.9107 70.9461 16.7356 69.7432 16.3853C68.5403 16.035 67.5742 15.5794 66.8447 15.0186L68.1257 12.169C68.8089 12.6675 69.6307 13.0759 70.5935 13.395C71.5555 13.7142 72.5259 13.8742 73.5038 13.8742C74.2492 13.8742 74.8502 13.7967 75.3085 13.6409C75.766 13.4851 76.1035 13.2788 76.3217 13.022C76.5391 12.7652 76.6474 12.4654 76.6474 12.1226C76.6474 11.6864 76.4762 11.3404 76.1354 11.0835C75.7937 10.8267 75.3396 10.6162 74.773 10.4528C74.2064 10.2894 73.5894 10.1336 72.9221 9.98544C72.2547 9.83723 71.5832 9.65871 70.9083 9.44819C70.2334 9.23767 69.6123 8.95725 69.0457 8.60694C68.4791 8.25664 68.0291 7.7977 67.6951 7.22845C67.361 6.66005 67.1948 5.94764 67.1948 5.09124C67.1948 4.15653 67.4432 3.30434 67.9402 2.53383C68.4371 1.76332 69.1934 1.14776 70.2099 0.688825C71.2265 0.229889 72.5032 0 74.0402 0C75.0651 0 76.0774 0.124628 77.0789 0.373885C78.0803 0.623142 78.9533 0.981028 79.6987 1.44839L78.5109 4.298C77.7814 3.8778 77.0285 3.56202 76.252 3.35234C75.4756 3.14182 74.731 3.0374 74.0167 3.0374C73.3023 3.0374 72.6736 3.11908 72.2237 3.28244C71.7729 3.44581 71.4439 3.66812 71.234 3.94853C71.0242 4.22895 70.9201 4.54052 70.9201 4.88325C70.9201 5.31945 71.0905 5.66975 71.4321 5.93417C71.7738 6.19943 72.2237 6.40574 72.7827 6.5531C73.3418 6.70131 73.9621 6.84951 74.6454 6.99688C75.3287 7.14509 76.0036 7.32782 76.6709 7.54592C77.3382 7.76402 77.9518 8.04022 78.51 8.37537C79.0691 8.71052 79.5232 9.16188 79.8724 9.73028C80.2216 10.2987 80.3962 11.0035 80.3962 11.8439C80.3962 12.7626 80.1435 13.6039 79.6399 14.3668C79.1354 15.1297 78.3707 15.7453 77.3466 16.2118C76.3217 16.6792 75.0416 16.9124 73.5046 16.9124L73.5038 16.9107Z" fill="white"/>
<path d="M101.409 16.9486V0H108.722C110.233 0 111.537 0.245889 112.632 0.738508C113.725 1.23113 114.571 1.93679 115.166 2.85719C115.761 3.77759 116.059 4.86641 116.059 6.12616C116.059 7.38592 115.761 8.49495 115.166 9.40693C114.571 10.3189 113.725 11.0136 112.632 11.4894C111.537 11.966 110.234 12.2035 108.722 12.2035H103.557L105.343 10.5084V16.9486H101.409ZM105.343 10.9437L103.557 9.07935H108.504C109.695 9.07935 110.596 8.82168 111.207 8.30464C111.818 7.78844 112.125 7.06172 112.125 6.12532C112.125 5.18892 111.819 4.46642 111.207 3.95864C110.595 3.45002 109.695 3.19571 108.504 3.19571H103.557L105.343 1.33134V10.9437ZM112.173 16.9486L107.926 10.7989H112.125L116.373 16.9486H112.173Z" fill="white"/>
<path d="M158.511 16.9486V0H165.824C167.336 0 168.64 0.245889 169.734 0.738508C170.828 1.23113 171.673 1.93679 172.268 2.85719C172.864 3.77759 173.162 4.86641 173.162 6.12616C173.162 7.38592 172.864 8.49495 172.268 9.40693C171.673 10.3189 170.828 11.0136 169.734 11.4894C168.64 11.966 167.337 12.2035 165.824 12.2035H160.659L162.446 10.5084V16.9486H158.511ZM162.446 10.9437L160.659 9.07935H165.607C166.797 9.07935 167.699 8.82168 168.31 8.30464C168.921 7.78844 169.227 7.06172 169.227 6.12532C169.227 5.18892 168.922 4.46642 168.31 3.95864C167.698 3.45002 166.797 3.19571 165.607 3.19571H160.659L162.446 1.33134V10.9437ZM169.276 16.9486L165.028 10.7989H169.228L173.475 16.9486H169.276Z" fill="white"/>
<path d="M127.204 16.9486L119.891 0H124.139L130.511 15.0118H128.024L134.494 0H138.379L131.066 16.9486H127.205H127.204Z" fill="white"/>
<path d="M97.2591 0H84.5453C84.1967 0 83.9141 0.283514 83.9141 0.633247V2.39826C83.9141 2.74799 84.1967 3.0315 84.5453 3.0315H97.2591C97.6077 3.0315 97.8903 2.74799 97.8903 2.39826V0.633247C97.8903 0.283514 97.6077 0 97.2591 0Z" fill="#BF0204"/>
<path d="M97.2591 6.94727H84.5453C84.1967 6.94727 83.9141 7.23078 83.9141 7.58051V9.34552C83.9141 9.69525 84.1967 9.97877 84.5453 9.97877H97.2591C97.6077 9.97877 97.8903 9.69525 97.8903 9.34552V7.58051C97.8903 7.23078 97.6077 6.94727 97.2591 6.94727Z" fill="#BF0204"/>
<path d="M97.2591 13.8945H84.5453C84.1967 13.8945 83.9141 14.178 83.9141 14.5278V16.2928C83.9141 16.6425 84.1967 16.926 84.5453 16.926H97.2591C97.6077 16.926 97.8903 16.6425 97.8903 16.2928V14.5278C97.8903 14.178 97.6077 13.8945 97.2591 13.8945Z" fill="#BF0204"/>
<path d="M145.786 13.8169H154.993V16.968H141.897V0H154.679V3.15192H145.787V13.8169H145.786ZM145.497 6.81162H153.64V9.89028H145.497V6.81162Z" fill="white"/>
</svg>
