<svg width="168" height="17" viewBox="0 0 168 17" fill="none" xmlns="http://www.w3.org/2000/svg">
<path d="M5.23601 16.4137V3.09485H0V0H14.2578V3.09485H9.02178V16.4129H5.2352L5.23601 16.4137Z" fill="#1C1C1C"/>
<path d="M26.3688 16.4634C25.1145 16.4634 23.9585 16.2587 22.9009 15.8494C21.8433 15.44 20.9214 14.8642 20.1353 14.1213C19.3492 13.3784 18.7412 12.5066 18.3103 11.506C17.8795 10.5053 17.6641 9.4142 17.6641 8.23172C17.6641 7.04923 17.8795 5.93852 18.3103 4.94604C18.7412 3.95357 19.3492 3.08506 20.1353 2.34213C20.9206 1.59921 21.8392 1.02346 22.8895 0.614076C23.9398 0.204692 25.0917 0 26.346 0C27.6004 0 28.7523 0.20143 29.8026 0.602659C30.8529 1.0047 31.7707 1.57719 32.5567 2.3193C33.342 3.06223 33.9509 3.934 34.3817 4.93463C34.8126 5.93525 35.028 7.03456 35.028 8.23172C35.028 9.42888 34.8126 10.5094 34.3817 11.5174C33.9509 12.5254 33.3428 13.4012 32.5567 14.1441C31.7707 14.8871 30.8529 15.4595 29.8026 15.8608C28.7523 16.262 27.6077 16.4634 26.3688 16.4634ZM26.346 13.3482C27.0565 13.3482 27.7093 13.2234 28.3068 12.9731C28.9035 12.7227 29.4286 12.3671 29.8822 11.9039C30.3358 11.4416 30.687 10.9033 30.9366 10.2892C31.1862 9.67516 31.3105 8.98932 31.3105 8.23172C31.3105 7.47411 31.1862 6.78746 30.9366 6.17338C30.687 5.5593 30.3358 5.02189 29.8822 4.55868C29.4286 4.09629 28.9035 3.73991 28.3068 3.48955C27.7093 3.23919 27.0565 3.11442 26.346 3.11442C25.6356 3.11442 24.9779 3.23919 24.3739 3.48955C23.7691 3.73991 23.2439 4.09629 22.7985 4.55868C22.353 5.02107 22.0051 5.5593 21.7555 6.17338C21.5059 6.78746 21.3815 7.4733 21.3815 8.23172C21.3815 8.99014 21.5059 9.67598 21.7555 10.2892C22.0051 10.9033 22.3522 11.4416 22.7985 11.9039C23.2439 12.3663 23.7691 12.7227 24.3739 12.9731C24.9779 13.2234 25.6356 13.3482 26.346 13.3482Z" fill="#1C1C1C"/>
<path d="M38.4365 16.4137V0H45.5187C46.9836 0 48.2452 0.238128 49.3053 0.715199C50.3645 1.19227 51.1831 1.87566 51.7595 2.76701C52.3358 3.65836 52.6244 4.71281 52.6244 5.93281C52.6244 7.1528 52.3358 8.22682 51.7595 9.11002C51.1831 9.99321 50.3645 10.6774 49.3053 11.1618C48.2452 11.6462 46.9836 11.8884 45.5187 11.8884H40.5168L42.2467 10.1767V16.4137H38.4365ZM42.2467 10.5983L40.5168 8.79279H45.3081C46.4608 8.79279 47.3339 8.54324 47.9257 8.04252C48.5175 7.54262 48.8142 6.83883 48.8142 5.93199C48.8142 5.02515 48.5183 4.32544 47.9257 3.83369C47.3331 3.34113 46.4608 3.09485 45.3081 3.09485H40.5168L42.2467 1.28932V10.5983Z" fill="#1C1C1C"/>
<path d="M71.1842 16.377C69.9218 16.377 68.7073 16.2074 67.5424 15.8681C66.3774 15.5289 65.4418 15.0877 64.7354 14.5445L65.9759 11.7849C66.6376 12.2677 67.4334 12.6632 68.3658 12.9723C69.2975 13.2813 70.2372 13.4363 71.1842 13.4363C71.9061 13.4363 72.4882 13.3613 72.932 13.2104C73.3751 13.0595 73.7018 12.8597 73.9132 12.611C74.1238 12.3623 74.2286 12.0719 74.2286 11.74C74.2286 11.3176 74.0628 10.9824 73.7327 10.7337C73.4019 10.485 72.9621 10.2811 72.4134 10.1229C71.8646 9.96467 71.2672 9.8138 70.6209 9.67027C69.9746 9.52674 69.3243 9.35385 68.6707 9.14998C68.0171 8.9461 67.4155 8.67454 66.8668 8.33529C66.3181 7.99604 65.8824 7.55159 65.5588 7.0003C65.2353 6.44984 65.0743 5.75992 65.0743 4.93055C65.0743 4.02534 65.315 3.20005 65.7962 2.45386C66.2775 1.70767 67.0099 1.11153 67.9943 0.667084C68.9788 0.222633 70.2152 0 71.7037 0C72.6963 0 73.6766 0.120695 74.6465 0.362085C75.6163 0.603474 76.4617 0.950064 77.1836 1.40267L76.0333 4.16234C75.3269 3.75541 74.5977 3.44959 73.8457 3.24653C73.0938 3.04265 72.3727 2.94153 71.6809 2.94153C70.9891 2.94153 70.3803 3.02063 69.9445 3.17884C69.508 3.33705 69.1893 3.55234 68.9861 3.82391C68.7829 4.09547 68.6821 4.39721 68.6821 4.72912C68.6821 5.15155 68.8471 5.4908 69.178 5.74687C69.5088 6.00376 69.9445 6.20355 70.4859 6.34627C71.0273 6.4898 71.6281 6.63333 72.2898 6.77604C72.9515 6.91957 73.6051 7.09653 74.2514 7.30775C74.8977 7.51897 75.4919 7.78645 76.0325 8.11102C76.5739 8.43559 77.0137 8.87271 77.3519 9.42317C77.69 9.97364 77.8591 10.6562 77.8591 11.4701C77.8591 12.3598 77.6144 13.1745 77.1267 13.9133C76.6381 14.6522 75.8975 15.2483 74.9058 15.7001C73.9132 16.1527 72.6735 16.3786 71.185 16.3786L71.1842 16.377Z" fill="#1C1C1C"/>
<path d="M98.208 16.4137V0H105.29C106.754 0 108.017 0.238128 109.077 0.715199C110.136 1.19227 110.955 1.87566 111.531 2.76701C112.107 3.65836 112.396 4.71281 112.396 5.93281C112.396 7.1528 112.107 8.22682 111.531 9.11002C110.955 9.99321 110.136 10.666 109.077 11.1268C108.017 11.5883 106.755 11.8183 105.29 11.8183H100.288L102.018 10.1767V16.4137H98.208ZM102.018 10.5983L100.288 8.79279H105.08C106.232 8.79279 107.105 8.54324 107.697 8.04252C108.289 7.54262 108.586 6.83883 108.586 5.93199C108.586 5.02515 108.29 4.32544 107.697 3.83369C107.105 3.34113 106.232 3.09485 105.08 3.09485H100.288L102.018 1.28932V10.5983ZM108.633 16.4137L104.52 10.458H108.587L112.7 16.4137H108.633Z" fill="#1C1C1C"/>
<path d="M153.509 16.4137V0H160.591C162.055 0 163.317 0.238128 164.378 0.715199C165.437 1.19227 166.255 1.87566 166.832 2.76701C167.408 3.65836 167.697 4.71281 167.697 5.93281C167.697 7.1528 167.408 8.22682 166.832 9.11002C166.255 9.99321 165.437 10.666 164.378 11.1268C163.317 11.5883 162.056 11.8183 160.591 11.8183H155.589L157.319 10.1767V16.4137H153.509ZM157.319 10.5983L155.589 8.79279H160.38C161.533 8.79279 162.406 8.54324 162.998 8.04252C163.59 7.54262 163.887 6.83883 163.887 5.93199C163.887 5.02515 163.591 4.32544 162.998 3.83369C162.405 3.34113 161.533 3.09485 160.38 3.09485H155.589L157.319 1.28932V10.5983ZM163.934 16.4137L159.82 10.458H163.887L168.001 16.4137H163.934Z" fill="#1C1C1C"/>
<path d="M123.189 16.4137L116.106 0H120.22L126.391 14.538H123.983L130.248 0H134.011L126.929 16.4137H123.189H123.189Z" fill="#1C1C1C"/>
<path d="M94.1894 0H81.8769C81.5393 0 81.2656 0.274566 81.2656 0.61326V2.32256C81.2656 2.66126 81.5393 2.93582 81.8769 2.93582H94.1894C94.527 2.93582 94.8007 2.66126 94.8007 2.32256V0.61326C94.8007 0.274566 94.527 0 94.1894 0Z" fill="#BF0204"/>
<path d="M94.1894 6.72803H81.8769C81.5393 6.72803 81.2656 7.00259 81.2656 7.34129V9.05059C81.2656 9.38928 81.5393 9.66385 81.8769 9.66385H94.1894C94.527 9.66385 94.8007 9.38928 94.8007 9.05059V7.34129C94.8007 7.00259 94.527 6.72803 94.1894 6.72803Z" fill="#BF0204"/>
<path d="M94.1894 13.4561H81.8769C81.5393 13.4561 81.2656 13.7306 81.2656 14.0693V15.7786C81.2656 16.1173 81.5393 16.3919 81.8769 16.3919H94.1894C94.527 16.3919 94.8007 16.1173 94.8007 15.7786V14.0693C94.8007 13.7306 94.527 13.4561 94.1894 13.4561Z" fill="#BF0204"/>
<path d="M141.185 13.3808H150.101V16.4324H137.419V0H149.797V3.05244H141.186V13.3808H141.185ZM140.905 6.59663H148.791V9.57812H140.905V6.59663Z" fill="#1C1C1C"/>
</svg>
