<svg width="140" height="30" fill="none" xmlns="http://www.w3.org/2000/svg"><g clip-path="url(#clip0_345_169)"><path d="M47.132 29.318h7.033L41.783.682h-6.621L22.821 29.318h6.867l2.101-5.32h13.248l2.092 5.32h.003zM33.89 18.691l4.543-11.504 4.52 11.504H33.89z" fill="#1A2141"/><path d="M119.355.682h-7.605L122.092 15l3.806-5.26-6.543-9.058z" fill="#E94E1B"/><path d="M111.75 29.318h7.605l6.543-9.059L122.095 15 111.75 29.318z" fill="#009FE3"/><path d="M125.898 9.74L122.092 15h.003l3.803 5.26 3.8-5.26-3.8-5.26z" fill="#3AAA35"/><path d="M19.221 1.948c1.888.848 3.344 2.046 4.366 3.602 1.02 1.554 1.532 3.395 1.532 5.524 0 2.128-.512 3.935-1.532 5.503-1.022 1.571-2.475 2.769-4.366 3.602-1.891.83-4.117 1.246-6.682 1.246H6.705v7.896H0V.681h12.536c2.565 0 4.794.423 6.682 1.267h.003zm-2.464 12.785c1.05-.859 1.572-2.08 1.572-3.662 0-1.583-.526-2.844-1.572-3.703-1.048-.858-2.58-1.29-4.593-1.29H6.702v9.942h5.462c2.014 0 3.545-.431 4.593-1.29v.003zM82.95.682v28.636h-5.505L63.003 11.932v17.386h-6.621V.682h5.546l14.401 17.386V.682h6.621zm26.74 23.317v5.32H87.793V.681h21.888v5.32H94.455v18h15.235v-.003zM127.217 7.84l3.809 5.264L140 .682h-7.603l-5.18 7.157zm0 14.323l3.809-5.267L140 29.318h-7.603l-5.18-7.155z" fill="#1A2141"/><path d="M114.873 12.346h-16.13v5.308h16.13v-5.308z" fill="#1A2141"/></g><defs><clipPath id="clip0_345_169"><path fill="#fff" transform="translate(0 .682)" d="M0 0h140v28.636H0z"/></clipPath></defs></svg>