<?xml version="1.0" encoding="utf-8"?><svg viewBox="0 0 71 71" xmlns="http://www.w3.org/2000/svg" xmlns:xlink="http://www.w3.org/1999/xlink"><style>:root>svg{display:none}:root>svg:target{display:block}</style><svg viewBox="0 0 16 16" id="accept-email" xmlns="http://www.w3.org/2000/svg"><path d="M14.667 8V3H1.333v10H8m6.667-1.667H10"/><path d="M11.667 9.667L10 11.333 11.667 13M1.333 3L8 8l6.667-5"/></svg><svg viewBox="0 0 16 16" id="add-user" xmlns="http://www.w3.org/2000/svg"><path d="M8 6.667a2.667 2.667 0 100-5.334 2.667 2.667 0 000 5.334zm6 8a6 6 0 00-12 0M6.333 13h3.334M8 11.333v3.334"/></svg><svg stroke-width="1.5" color="#000" viewBox="0 0 24 24" id="arrow" xmlns="http://www.w3.org/2000/svg"><path d="M9 6l6 6-6 6"/></svg><svg viewBox="0 0 21 16" id="burger" xmlns="http://www.w3.org/2000/svg"><rect width="21" height="1.519" rx=".759" transform="matrix(-1 0 0 1 21 0)"/><rect width="21" height="1.519" rx=".759" transform="matrix(-1 0 0 1 21 6.833)"/><rect width="21" height="1.519" rx=".759" transform="matrix(-1 0 0 1 21 13.666)"/></svg><svg viewBox="0 0 19 19" id="check-box" xmlns="http://www.w3.org/2000/svg"><path d="M13.569 6.951a.38.38 0 010 .538l-5.32 5.32a.379.379 0 01-.538 0l-2.28-2.28a.38.38 0 11.538-.538l2.011 2.011 5.051-5.05a.38.38 0 01.538 0zM19 9.5A9.5 9.5 0 119.5 0 9.51 9.51 0 0119 9.5zm-.76 0a8.74 8.74 0 10-8.74 8.74 8.75 8.75 0 008.74-8.74z"/></svg><svg viewBox="0 0 19 17" id="checked" xmlns="http://www.w3.org/2000/svg"><path d="M14.447 17H2.177C.977 17 0 16.002 0 14.774V2.226C0 .998.976 0 2.177 0h9.895a.6.6 0 01.594.607.6.6 0 01-.594.607H2.178c-.545 0-.99.454-.99 1.012v12.548c0 .558.445 1.012.99 1.012h12.27c.546 0 .99-.454.99-1.012V7.893a.6.6 0 01.594-.607.6.6 0 01.594.607v6.88c0 1.229-.977 2.227-2.178 2.227z"/><path d="M9.698 10.12a.582.582 0 01-.42-.18L5.716 6.299a.617.617 0 010-.859.585.585 0 01.84 0l3.142 3.214L17.986.178a.585.585 0 01.84 0 .617.617 0 010 .859l-8.708 8.905a.588.588 0 01-.42.177z"/></svg><svg viewBox="0 0 15 15" id="choice" xmlns="http://www.w3.org/2000/svg"><path d="M10.712 5.488a.301.301 0 010 .424l-4.2 4.2a.3.3 0 01-.424 0l-1.8-1.8a.3.3 0 01.424-.424L6.3 9.476l3.988-3.988a.3.3 0 01.424 0zM15 7.5A7.5 7.5 0 117.5 0 7.508 7.508 0 0115 7.5zm-.6 0a6.9 6.9 0 10-6.9 6.9 6.907 6.907 0 006.9-6.9z"/></svg><svg viewBox="0 0 18 18" id="close" xmlns="http://www.w3.org/2000/svg"><path d="M5.068 12.932L9.001 9l3.932 3.932m0-7.865L9 9 5.068 5.067"/></svg><svg viewBox="0 0 47 47" id="cloud" xmlns="http://www.w3.org/2000/svg"><path d="M12.729 32.313c-3.264 0-8.813-1.47-8.813-7.344 0-6.854 6.855-8.323 8.813-8.323.98-3.427 2.938-8.813 10.77-8.813 6.855 0 9.793 3.917 10.772 7.344 0 0 8.812.98 8.812 9.302 0 5.875-4.896 7.834-8.812 7.834H21.54"/><path d="M26.437 27.417l-4.896 4.895 4.896 4.896"/></svg><svg viewBox="0 0 53 53" id="contact-mail" xmlns="http://www.w3.org/2000/svg"><path d="M15.032 37.568l1.524-5.6a11.218 11.218 0 01-1.529-5.67c0-6.225 5.046-11.271 11.27-11.271 6.225 0 11.27 5.046 11.27 11.27 0 6.225-5.045 11.27-11.27 11.27a11.219 11.219 0 01-5.668-1.527l-5.597 1.528zm7.198-16.559c-.145.01-.288.048-.418.113-.122.07-.234.156-.331.257-.136.127-.212.238-.294.345a3.075 3.075 0 00-.637 1.89c.002.553.146 1.09.372 1.593.46 1.017 1.22 2.093 2.221 3.09.241.24.477.482.73.706a10.646 10.646 0 004.328 2.306l.641.098c.209.011.417-.004.627-.015.328-.016.649-.105.939-.26.147-.076.291-.159.431-.248 0 0 .049-.031.141-.101a2.58 2.58 0 00.372-.325c.094-.097.175-.21.237-.34.088-.184.176-.534.212-.826.027-.223.019-.345.016-.42-.005-.121-.105-.246-.215-.3l-.655-.293s-.98-.428-1.58-.7a.56.56 0 00-.199-.047.541.541 0 00-.426.144v-.003c-.006 0-.081.065-.896 1.052a.395.395 0 01-.415.146 1.606 1.606 0 01-.215-.074c-.14-.059-.188-.081-.284-.123l-.005-.002a6.775 6.775 0 01-1.77-1.127c-.142-.124-.274-.26-.409-.39a7.093 7.093 0 01-1.15-1.43l-.066-.106a1.04 1.04 0 01-.115-.231c-.043-.166.069-.299.069-.299s.274-.3.4-.462c.107-.135.206-.275.297-.42.133-.215.175-.434.105-.605a93.637 93.637 0 00-.978-2.3c-.067-.15-.264-.259-.443-.28a3.656 3.656 0 00-.183-.018 3.824 3.824 0 00-.454.005z"/></svg><svg viewBox="0 0 53 53" id="contact-phone" xmlns="http://www.w3.org/2000/svg"><path d="M21.622 15.644c.455 0 .873.238 1.093.621l1.53 2.663c.2.348.21.77.025 1.127l-1.473 2.848s.427 2.121 2.213 3.848c1.787 1.727 3.974 2.133 3.974 2.133l2.945-1.424c.37-.179.806-.17 1.167.024l2.762 1.485c.397.213.643.617.643 1.056v3.065c0 1.561-1.5 2.689-3.03 2.19-3.143-1.025-8.02-2.977-11.113-5.966-3.091-2.988-5.11-7.704-6.17-10.741-.517-1.48.65-2.93 2.264-2.93h3.17z"/></svg><svg viewBox="0 0 53 53" id="contact-tg" xmlns="http://www.w3.org/2000/svg"><path d="M37.919 15.027c.787 0 1.38.726 1.063 2.077l-3.853 19.1c-.27 1.359-1.05 1.686-2.127 1.054l-9.191-7.14a.302.302 0 010-.472l10.614-10.08c.483-.45-.104-.668-.74-.261l-13.32 8.838a.308.308 0 01-.276.037l-5.656-1.881c-1.256-.385-1.256-1.293.284-1.94l22.629-9.18c.179-.09.374-.142.573-.152z"/></svg><svg viewBox="0 0 53 53" id="contact-wat" xmlns="http://www.w3.org/2000/svg"><path d="M35.991 21.166l-8.783-4.42a2.036 2.036 0 00-1.821 0l-8.784 4.42a2.815 2.815 0 00-1.15 1.052 2.89 2.89 0 00-.426 1.515v9.462c0 1.582 1.279 2.87 2.851 2.87h16.838c1.573 0 2.852-1.288 2.852-2.87v-9.462a2.89 2.89 0 00-.426-1.515 2.816 2.816 0 00-1.15-1.052zm-9.876-2.954a.406.406 0 01.364 0l8.523 4.288-8.654 4.357a.406.406 0 01-.365 0l-8.523-4.289 8.655-4.356z"/></svg><svg viewBox="0 0 20 20" id="copy" xmlns="http://www.w3.org/2000/svg"><path d="M14.375 5.156H3.125a.469.469 0 00-.469.469v11.25a.47.47 0 00.469.469h11.25a.47.47 0 00.469-.469V5.625a.469.469 0 00-.469-.469zm-.469 11.25H3.594V6.094h10.312v10.312zm3.438-13.281v11.25a.47.47 0 01-.938 0V3.594H5.625a.469.469 0 010-.938h11.25a.47.47 0 01.469.469z"/></svg><svg viewBox="0 0 22 22" id="cpu" xmlns="http://www.w3.org/2000/svg"><g clip-path="url(#aoa)" stroke-linejoin="round"><path d="M17.416 3.667H4.583a.917.917 0 00-.917.916v12.834c0 .506.41.916.917.916h12.834c.506 0 .916-.41.916-.916V4.583a.917.917 0 00-.916-.916z"/><path d="M13.75 8.25h-5.5v5.5h5.5v-5.5zM6.833.917v2.75m0 14.666v2.75M11 .917v2.75m0 14.666v2.75M15.166.917v2.75m0 14.666v2.75M.917 6.833h2.75m14.667 0h2.75M.917 11h2.75m14.667 0h2.75M.917 15.167h2.75m14.667 0h2.75"/></g><defs><clipPath id="aoa"><path d="M0 0h22v22H0z"/></clipPath></defs></svg><svg viewBox="0 0 16 16" id="entrance" xmlns="http://www.w3.org/2000/svg"><path d="M11.12 10.286L13.334 8m0 0L11.12 5.714M13.334 8H6.476m4.572-5.333l-6.095.001c-.842 0-1.524.683-1.524 1.524v7.615a1.524 1.524 0 001.524 1.524h6.167"/></svg><svg viewBox="0 0 20 20" id="eye" xmlns="http://www.w3.org/2000/svg"><path d="M19.036 9.873c-.027-.059-.666-1.475-2.096-2.906-1.325-1.325-3.604-2.904-6.94-2.904-3.336 0-5.615 1.58-6.94 2.904C1.63 8.397.99 9.814.964 9.873a.319.319 0 000 .254c.026.06.665 1.476 2.096 2.907 1.328 1.328 3.605 2.903 6.94 2.903 3.335 0 5.615-1.578 6.94-2.903 1.43-1.43 2.07-2.847 2.096-2.907a.318.318 0 000-.254zm-2.555 2.735c-1.802 1.797-3.984 2.704-6.484 2.704s-4.68-.91-6.485-2.704A10.6 10.6 0 011.597 10a10.6 10.6 0 011.918-2.608C5.321 5.598 7.5 4.687 10 4.687c2.5 0 4.679.91 6.484 2.705A10.61 10.61 0 0118.403 10a10.602 10.602 0 01-1.919 2.608h-.003zM10 6.562a3.438 3.438 0 100 6.876 3.438 3.438 0 000-6.876zm0 6.25a2.813 2.813 0 110-5.625 2.813 2.813 0 010 5.625z"/></svg><svg viewBox="0 0 22 22" id="inbox" xmlns="http://www.w3.org/2000/svg"><path d="M1.833 13.75l2.292-11h13.75l2.292 11M1.833 13.75h5l.834 2.75h6.667l.833-2.75h5v5.958H1.833V13.75zM8.709 6.417h4.583m-5.959 3.666h7.334"/></svg><svg viewBox="0 0 26 25" id="layout" xmlns="http://www.w3.org/2000/svg"><path d="M9.75 3.125H4.333c-.598 0-1.083.466-1.083 1.042v5.208c0 .575.485 1.042 1.083 1.042H9.75c.598 0 1.083-.467 1.083-1.042V4.167c0-.576-.485-1.042-1.083-1.042zm0 11.458H4.333c-.598 0-1.083.467-1.083 1.042v5.208c0 .576.485 1.042 1.083 1.042H9.75c.598 0 1.083-.466 1.083-1.042v-5.208c0-.575-.485-1.042-1.083-1.042zM21.667 3.125H16.25c-.598 0-1.083.466-1.083 1.042v5.208c0 .575.485 1.042 1.083 1.042h5.417c.598 0 1.083-.467 1.083-1.042V4.167c0-.576-.485-1.042-1.083-1.042zm0 11.458H16.25c-.598 0-1.083.467-1.083 1.042v5.208c0 .576.485 1.042 1.083 1.042h5.417c.598 0 1.083-.466 1.083-1.042v-5.208c0-.575-.485-1.042-1.083-1.042z"/></svg><svg viewBox="0 0 47 47" id="link-cloud" xmlns="http://www.w3.org/2000/svg"><path d="M12.729 32.313c-3.264 0-8.813-1.47-8.813-7.344 0-6.854 6.855-8.323 8.813-8.323.98-3.427 2.938-8.813 10.77-8.813 6.855 0 9.793 3.917 10.772 7.344 0 0 8.812.98 8.812 9.302 0 5.875-4.896 7.834-8.812 7.834H21.54"/><path d="M26.437 27.417l-4.896 4.895 4.896 4.896"/></svg><svg viewBox="0 0 24 24" id="list-arrow" xmlns="http://www.w3.org/2000/svg"><path d="M8.413 9.005l3.88 3.88 3.88-3.88a.998.998 0 011.41 1.41l-4.59 4.59a.996.996 0 01-1.41 0l-4.59-4.59a.996.996 0 010-1.41c.39-.38 1.03-.39 1.42 0z"/></svg><svg viewBox="0 0 26 26" id="local" xmlns="http://www.w3.org/2000/svg"><path d="M13 23.833s8.125-6.5 8.125-13.541a8.125 8.125 0 00-16.25 0C4.875 17.333 13 23.833 13 23.833z"/><path d="M13 13.542a3.25 3.25 0 100-6.5 3.25 3.25 0 000 6.5z"/></svg><svg viewBox="0 0 54 48" id="message" xmlns="http://www.w3.org/2000/svg"><path d="M38.458 42.333H24.25V32h18.083V21.667h10.334v20.666h-6.459l-3.875 3.875-3.875-3.875z"/><path d="M1 1h41.333v31H17.792l-5.167 5.167L7.458 32H1V1zM11.332 21.667h7.75m-7.75-10.334h15.5"/></svg><svg viewBox="0 0 24 24" id="more-detailed" xmlns="http://www.w3.org/2000/svg"><path d="M9.005 15.587l3.88-3.88-3.88-3.88a.997.997 0 011.41-1.41l4.59 4.59c.39.39.39 1.02 0 1.41l-4.59 4.59a.996.996 0 01-1.41 0c-.38-.39-.39-1.03 0-1.42z"/></svg><svg viewBox="0 0 8 25" id="next" xmlns="http://www.w3.org/2000/svg"><path d="M3.646 24.354a.5.5 0 00.708 0l3.182-3.182a.5.5 0 10-.708-.707L4 23.293l-2.828-2.828a.5.5 0 10-.708.707l3.182 3.182zM3.5 0v24h1V0h-1z"/></svg><svg viewBox="0 0 14 14" id="pencil" xmlns="http://www.w3.org/2000/svg"><g clip-path="url(#aza)"><mask id="aza" maskUnits="userSpaceOnUse" x="0" y="0" width="14" height="14"><path d="M14 0H0v14h14V0z"/></mask><g mask="url(#aza)" stroke-linecap="round" stroke-linejoin="round"><path d="M9.041 2.625l2.334 2.333M2.333 9.333L10.5 1.167 12.833 3.5l-8.166 8.166-2.917.584.583-2.917zm6.708-6.708l2.334 2.333m-8.75 4.375l2.042 2.042"/></g></g><defs><clipPath id="aza"><path d="M0 0h14v14H0z"/></clipPath></defs></svg><svg viewBox="0 0 8 25" id="prev" xmlns="http://www.w3.org/2000/svg"><path d="M4.354.646a.5.5 0 00-.708 0L.464 3.828a.5.5 0 10.708.708L4 1.707l2.828 2.829a.5.5 0 10.708-.708L4.354.646zM4.5 25V1h-1v24h1z"/></svg><svg viewBox="0 0 50 49" id="screen" xmlns="http://www.w3.org/2000/svg"><path d="M24.25 1H4.875A3.875 3.875 0 001 4.875v28.417a3.875 3.875 0 003.875 3.875h38.75a3.875 3.875 0 003.875-3.875v-6.459M24.25 37.167V47.5m-12.918 0h25.833M41.043 13.917a3.875 3.875 0 100-7.75 3.875 3.875 0 000 7.75zM41.043 19.083v-5.166m0-7.75V1M33.21 14.563l4.475-2.584m6.713-3.875l4.475-2.583M33.21 5.52l4.475 2.584m6.713 3.876l4.475 2.582"/></svg><svg viewBox="0 0 16 16" id="search" xmlns="http://www.w3.org/2000/svg"><path d="M7 12.667A5.667 5.667 0 107 1.333a5.667 5.667 0 000 11.334z"/><path d="M8.885 4.781A2.658 2.658 0 007 4c-.737 0-1.403.298-1.886.781m5.96 6.293l2.829 2.828"/></svg><svg viewBox="0 0 35 35" id="social-mail" xmlns="http://www.w3.org/2000/svg"><path d="M23.951 14.085l-5.845-2.942a1.355 1.355 0 00-1.212 0l-5.845 2.942c-.315.156-.58.398-.766.7A1.923 1.923 0 0010 15.794v6.297c0 1.053.851 1.91 1.897 1.91h11.206A1.906 1.906 0 0025 22.09v-6.297c0-.356-.098-.705-.283-1.007a1.874 1.874 0 00-.766-.7zm-6.572-1.966a.272.272 0 01.242 0l5.671 2.854-5.759 2.9a.27.27 0 01-.242 0l-5.672-2.855 5.76-2.899z"/></svg><svg viewBox="0 0 30 29" id="social-telephone" xmlns="http://www.w3.org/2000/svg"><path d="M10.623 4.644c.454 0 .872.238 1.093.621l1.529 2.663c.2.348.21.77.025 1.127l-1.473 2.848s.426 2.121 2.213 3.848c1.787 1.727 3.974 2.133 3.974 2.133l2.945-1.424c.37-.179.806-.17 1.167.024l2.762 1.485c.396.213.642.617.642 1.056v3.065c0 1.561-1.5 2.689-3.03 2.19-3.142-1.025-8.02-2.977-11.112-5.966-3.091-2.988-5.11-7.704-6.17-10.741-.517-1.48.65-2.93 2.264-2.93h3.17z"/></svg><svg viewBox="0 0 35 35" id="social-tg" xmlns="http://www.w3.org/2000/svg"><path d="M25.234 10c.524 0 .92.483.708 1.382l-2.564 12.711c-.18.904-.699 1.121-1.416.7l-6.116-4.75a.191.191 0 01-.056-.069.202.202 0 010-.176.19.19 0 01.056-.07l7.063-6.707c.322-.3-.069-.445-.492-.174l-8.864 5.881a.204.204 0 01-.184.025L9.605 17.5c-.836-.256-.836-.86.189-1.29l15.059-6.11a.964.964 0 01.381-.101z"/></svg><svg viewBox="0 0 35 35" id="social-wt" xmlns="http://www.w3.org/2000/svg"><path d="M10.003 25l1.014-3.726a7.5 7.5 0 112.71 2.71L10.003 25zm4.79-11.019a.72.72 0 00-.278.075.971.971 0 00-.22.171c-.09.085-.142.158-.196.23-.277.36-.427.803-.424 1.258.002.367.098.725.247 1.06.307.676.812 1.393 1.479 2.056.16.16.317.32.486.47a7.084 7.084 0 002.88 1.534l.427.066c.138.007.277-.003.416-.01.219-.011.432-.07.625-.173a3.58 3.58 0 00.288-.166s.032-.02.093-.067c.102-.075.164-.128.248-.216a.864.864 0 00.157-.226 2.09 2.09 0 00.141-.55c.018-.149.013-.23.01-.28-.002-.08-.069-.164-.142-.199l-.436-.195s-.653-.285-1.051-.466a.373.373 0 00-.133-.031.361.361 0 00-.283.095v-.001c-.004 0-.054.043-.596.7a.263.263 0 01-.276.097 1.063 1.063 0 01-.144-.05c-.093-.038-.125-.053-.189-.081l-.003-.002a4.505 4.505 0 01-1.178-.75c-.095-.082-.182-.172-.272-.26a4.715 4.715 0 01-.765-.95l-.045-.072a.69.69 0 01-.076-.153c-.028-.11.046-.199.046-.199s.182-.2.267-.308c.07-.09.136-.183.197-.28.088-.142.116-.288.07-.401a62.44 62.44 0 00-.651-1.531c-.045-.1-.176-.172-.295-.187a3.329 3.329 0 00-.122-.012 2.54 2.54 0 00-.302.004z"/></svg><svg viewBox="0 0 54 54" id="speed" xmlns="http://www.w3.org/2000/svg"><path d="M39.78 4.474A25.714 25.714 0 0026.833 1C12.566 1 1 12.566 1 26.833c0 14.268 11.566 25.834 25.833 25.834 14.268 0 25.834-11.566 25.834-25.834 0-4.685-1.248-9.079-3.428-12.868"/><path d="M37.1 16.565s-4.376 11.682-6.393 13.7a5.167 5.167 0 11-7.307-7.307c2.018-2.017 13.7-6.393 13.7-6.393z"/></svg><svg viewBox="0 0 22 22" id="speed-one" xmlns="http://www.w3.org/2000/svg"><path d="M13.886 8.607s-1.48 4.172-2.183 4.9a1.833 1.833 0 01-2.638-2.547c.704-.728 4.821-2.353 4.821-2.353z"/><path d="M17.806 17.806A9.595 9.595 0 0020.625 11 9.625 9.625 0 0011 1.375a9.625 9.625 0 00-6.806 16.43M11 1.833v1.834m6.804 1.44L16.38 6.26m3.11 6.222l-1.787-.413m-15.193.413l1.787-.413m-.101-6.962L5.62 6.26"/></svg><svg viewBox="0 0 22 22" id="sphere" xmlns="http://www.w3.org/2000/svg"><path d="M11 14.667c5.063 0 9.167-1.642 9.167-3.667S16.063 7.333 11 7.333c-5.062 0-9.166 1.642-9.166 3.667S5.938 14.667 11 14.667z"/><path d="M14.667 11c0 5.063-1.642 9.167-3.667 9.167S7.333 16.063 7.333 11 8.976 1.833 11 1.833 14.667 5.937 14.667 11z"/><path d="M11 20.167a9.167 9.167 0 100-18.333 9.167 9.167 0 000 18.333z"/></svg><svg viewBox="0 0 30 30" id="spread" xmlns="http://www.w3.org/2000/svg"><circle cx="21.5" cy="15.5" r="1.5" transform="rotate(90 21.5 15.5)"/><circle cx="15.5" cy="15.5" r="1.5" transform="rotate(90 15.5 15.5)"/><circle cx="9.5" cy="15.5" r="1.5" transform="rotate(90 9.5 15.5)"/></svg><svg viewBox="0 0 16 16" id="telegram" xmlns="http://www.w3.org/2000/svg"><path d="M13.806 2.436s1.296-.505 1.188.722c-.036.505-.36 2.272-.612 4.184l-.863 5.663s-.072.83-.72.974c-.647.144-1.619-.505-1.799-.65-.143-.107-2.698-1.73-3.597-2.524-.252-.217-.54-.65.036-1.154l3.777-3.608c.432-.432.864-1.442-.935-.216L5.244 9.254s-.575.36-1.654.036l-2.34-.722s-.863-.54.612-1.082C5.46 5.791 9.885 4.06 13.806 2.436z"/></svg><svg viewBox="0 0 71 71" id="tg-request" xmlns="http://www.w3.org/2000/svg"><path d="M35.5 0C15.904 0 0 15.904 0 35.5S15.904 71 35.5 71 71 55.096 71 35.5 55.096 0 35.5 0zm16.472 24.14c-.532 5.609-2.84 19.241-4.011 25.524-.497 2.663-1.492 3.55-2.414 3.657-2.06.178-3.621-1.349-5.61-2.663-3.123-2.059-4.898-3.337-7.916-5.325-3.515-2.307-1.242-3.585.781-5.644.532-.532 9.62-8.804 9.798-9.55a.709.709 0 00-.178-.639c-.212-.177-.496-.106-.745-.07-.32.07-5.29 3.372-14.981 9.904-1.42.958-2.698 1.455-3.834 1.42-1.278-.035-3.692-.71-5.502-1.313-2.237-.71-3.976-1.101-3.835-2.344.072-.639.959-1.278 2.627-1.952 10.366-4.509 17.254-7.49 20.697-8.91 9.869-4.119 11.893-4.828 13.242-4.828.283 0 .958.07 1.384.425.355.284.462.675.497.959-.035.213.035.852 0 1.349z"/></svg><svg viewBox="0 0 48 25" id="the-arrow" xmlns="http://www.w3.org/2000/svg"><path d="M47.354 13.354a.5.5 0 000-.708l-3.182-3.182a.5.5 0 10-.707.708L46.293 13l-2.828 2.828a.5.5 0 10.707.707l3.182-3.181zM12 13.5h35v-1H12v1z"/><circle cx="12.5" cy="12.5" r="12"/></svg><svg viewBox="0 0 16 16" id="user" xmlns="http://www.w3.org/2000/svg"><path d="M8 6.667a2.667 2.667 0 100-5.334 2.667 2.667 0 000 5.334zm6 8a6 6 0 00-12 0"/></svg></svg>