<svg width="19" height="17" viewBox="0 0 19 17" fill="none" xmlns="http://www.w3.org/2000/svg">
<path d="M14.4474 17H2.17707C0.976121 17 0 16.0018 0 14.7738V2.22624C0 0.998169 0.976121 0 2.17707 0H12.0725C12.4002 0 12.6662 0.271999 12.6662 0.607143C12.6662 0.942287 12.4002 1.21429 12.0725 1.21429H2.17707C1.6316 1.21429 1.18746 1.66846 1.18746 2.22624V14.7738C1.18746 15.3315 1.6316 15.7857 2.17707 15.7857H14.4474C14.9929 15.7857 15.437 15.3315 15.437 14.7738V7.89286C15.437 7.55771 15.703 7.28571 16.0308 7.28571C16.3585 7.28571 16.6245 7.55771 16.6245 7.89286V14.7738C16.6245 16.0018 15.6484 17 14.4474 17Z" fill="#0CA750"/>
<path d="M9.69757 10.1191C9.54566 10.1191 9.3936 10.06 9.27808 9.94093L5.71568 6.29807C5.48376 6.0609 5.48376 5.6764 5.71568 5.43924C5.94761 5.20207 6.32362 5.20207 6.55555 5.43924L9.69844 8.65297L17.986 0.17817C18.2181 -0.059143 18.5941 -0.059143 18.8261 0.17817C19.058 0.415336 19.058 0.79984 18.8261 1.037L10.1179 9.94182C10.0015 10.06 9.84963 10.1191 9.69757 10.1191Z" fill="#0CA750"/>
</svg>
