<svg width="19" height="19" viewBox="0 0 19 19" fill="none" xmlns="http://www.w3.org/2000/svg">
<path d="M13.5689 6.95115C13.6042 6.98644 13.6322 7.02835 13.6513 7.07448C13.6705 7.12061 13.6803 7.17006 13.6803 7.22C13.6803 7.26994 13.6705 7.31938 13.6513 7.36552C13.6322 7.41165 13.6042 7.45356 13.5689 7.48885L8.24885 12.8088C8.21356 12.8442 8.17165 12.8722 8.12552 12.8913C8.07939 12.9105 8.02994 12.9203 7.98 12.9203C7.93006 12.9203 7.88062 12.9105 7.83449 12.8913C7.78835 12.8722 7.74644 12.8442 7.71115 12.8088L5.43115 10.5288C5.35985 10.4575 5.31979 10.3608 5.31979 10.26C5.31979 10.1592 5.35985 10.0625 5.43115 9.99115C5.50246 9.91984 5.59916 9.87979 5.7 9.87979C5.80084 9.87979 5.89755 9.91984 5.96885 9.99115L7.98 12.0023L13.0312 6.95115C13.0664 6.91582 13.1084 6.88779 13.1545 6.86867C13.2006 6.84954 13.2501 6.8397 13.3 6.8397C13.3499 6.8397 13.3994 6.84954 13.4455 6.86867C13.4917 6.88779 13.5336 6.91582 13.5689 6.95115ZM19 9.5C19 11.3789 18.4428 13.2156 17.399 14.7779C16.3551 16.3402 14.8714 17.5578 13.1355 18.2769C11.3996 18.9959 9.48946 19.184 7.64664 18.8175C5.80383 18.4509 4.11109 17.5461 2.78249 16.2175C1.45389 14.8889 0.549104 13.1962 0.182544 11.3534C-0.184015 9.51054 0.00411605 7.6004 0.723148 5.86451C1.44218 4.12861 2.65982 2.64491 4.22209 1.60104C5.78435 0.557165 7.62108 0 9.5 0C12.0187 0.00276602 14.4335 1.00454 16.2145 2.78554C17.9955 4.56654 18.9972 6.98129 19 9.5ZM18.24 9.5C18.24 7.77139 17.7274 6.0816 16.767 4.64431C15.8067 3.20703 14.4417 2.0868 12.8447 1.42529C11.2476 0.763783 9.49031 0.590702 7.79491 0.927936C6.09952 1.26517 4.5422 2.09758 3.31989 3.31989C2.09758 4.5422 1.26518 6.09951 0.927941 7.79491C0.590706 9.4903 0.763787 11.2476 1.4253 12.8447C2.08681 14.4417 3.20703 15.8067 4.64432 16.767C6.0816 17.7274 7.77139 18.24 9.5 18.24C11.8172 18.2375 14.0388 17.3159 15.6773 15.6773C17.3159 14.0388 18.2375 11.8172 18.24 9.5Z" fill="#47BA00"/>
</svg>
