<svg width="15" height="15" viewBox="0 0 15 15" fill="none" xmlns="http://www.w3.org/2000/svg">
<path d="M10.7123 5.48775C10.7401 5.51561 10.7623 5.5487 10.7774 5.58512C10.7925 5.62154 10.8002 5.66057 10.8002 5.7C10.8002 5.73942 10.7925 5.77846 10.7774 5.81488C10.7623 5.8513 10.7401 5.88439 10.7123 5.91225L6.51225 10.1122C6.48439 10.1401 6.4513 10.1623 6.41488 10.1774C6.37846 10.1925 6.33943 10.2002 6.3 10.2002C6.26058 10.2002 6.22154 10.1925 6.18512 10.1774C6.1487 10.1623 6.11561 10.1401 6.08775 10.1122L4.28775 8.31225C4.23146 8.25596 4.19984 8.17961 4.19984 8.1C4.19984 8.02039 4.23146 7.94404 4.28775 7.88775C4.34404 7.83146 4.42039 7.79983 4.5 7.79983C4.57961 7.79983 4.65596 7.83146 4.71225 7.88775L6.3 9.4755L10.2878 5.48775C10.3156 5.45986 10.3487 5.43773 10.3851 5.42263C10.4215 5.40753 10.4606 5.39976 10.5 5.39976C10.5394 5.39976 10.5785 5.40753 10.6149 5.42263C10.6513 5.43773 10.6844 5.45986 10.7123 5.48775ZM15 7.5C15 8.98336 14.5601 10.4334 13.736 11.6668C12.9119 12.9001 11.7406 13.8614 10.3701 14.4291C8.99968 14.9967 7.49168 15.1453 6.03682 14.8559C4.58197 14.5665 3.2456 13.8522 2.1967 12.8033C1.14781 11.7544 0.433503 10.418 0.144114 8.96317C-0.145275 7.50832 0.00324951 6.00032 0.570907 4.62987C1.13856 3.25943 2.09986 2.08809 3.33323 1.26398C4.56659 0.439867 6.01664 0 7.5 0C9.48845 0.0021837 11.3948 0.793061 12.8009 2.19911C14.2069 3.60516 14.9978 5.51155 15 7.5ZM14.4 7.5C14.4 6.13531 13.9953 4.80126 13.2371 3.66656C12.479 2.53187 11.4013 1.64748 10.1405 1.12523C8.87971 0.602986 7.49235 0.466343 6.15388 0.732581C4.81541 0.998819 3.58595 1.65598 2.62097 2.62096C1.65598 3.58594 0.998823 4.81541 0.732585 6.15387C0.466347 7.49234 0.60299 8.8797 1.12523 10.1405C1.64748 11.4013 2.53187 12.479 3.66657 13.2371C4.80127 13.9953 6.13531 14.4 7.5 14.4C9.32939 14.398 11.0833 13.6704 12.3768 12.3768C13.6704 11.0833 14.398 9.32938 14.4 7.5Z" fill="#47BA00"/>
</svg>
