<svg width="53" height="53" viewBox="0 0 53 53" fill="none" xmlns="http://www.w3.org/2000/svg">
<path d="M37.9187 15.0271C38.7059 15.0271 39.2998 15.7534 38.9821 17.1042L35.1289 36.2048C34.8596 37.5629 34.0793 37.8897 33.002 37.2579L23.8109 30.1187C23.7753 30.0918 23.7462 30.0564 23.7262 30.0154C23.7061 29.9743 23.6957 29.9288 23.6957 29.8827C23.6957 29.8366 23.7061 29.7911 23.7262 29.7501C23.7462 29.709 23.7753 29.6736 23.8109 29.6467L34.4245 19.5662C34.9079 19.1159 34.3209 18.8981 33.6856 19.3048L20.3651 28.1433C20.3247 28.171 20.2788 28.1887 20.231 28.195C20.1831 28.2013 20.1345 28.196 20.0889 28.1796L14.4333 26.2986C13.1765 25.9137 13.1765 25.0059 14.7165 24.3595L37.3455 15.1796C37.525 15.0891 37.7199 15.0372 37.9187 15.0271Z" fill="#303451"/>
</svg>
