<svg width="53" height="53" viewBox="0 0 53 53" fill="none" xmlns="http://www.w3.org/2000/svg">
<path d="M21.6225 15.6436C22.0767 15.6436 22.495 15.8816 22.7155 16.2654L24.2445 18.9278C24.4447 19.2765 24.4541 19.6981 24.2696 20.0547L22.7966 22.9026C22.7966 22.9026 23.2235 25.0241 25.01 26.751C26.7965 28.478 28.9838 28.8835 28.9838 28.8835L31.9294 27.4598C32.2985 27.2814 32.735 27.2906 33.0958 27.4845L35.8579 28.9689C36.2545 29.1821 36.5005 29.5863 36.5005 30.025V33.0902C36.5005 34.6512 35.0005 35.7787 33.4705 35.2796C30.328 34.2546 25.4501 32.303 22.3584 29.3143C19.2666 26.3256 17.2477 21.6102 16.1873 18.5725C15.6711 17.0935 16.8374 15.6436 18.4522 15.6436H21.6225Z" fill="white"/>
</svg>
