<svg width="53" height="53" viewBox="0 0 53 53" fill="none" xmlns="http://www.w3.org/2000/svg">
<path d="M35.9913 21.1658L27.208 16.7451C26.9245 16.6034 26.613 16.5298 26.2973 16.5298C25.9816 16.5298 25.6701 16.6034 25.3866 16.7451L16.6034 21.1658C16.1304 21.3995 15.7317 21.7643 15.4529 22.2183C15.1741 22.6723 15.0265 23.1971 15.027 23.7326V33.1947C15.027 34.7774 16.306 36.0649 17.8783 36.0649H34.7163C36.2886 36.0649 37.5676 34.7774 37.5676 33.1947V23.7326C37.5681 23.1971 37.4205 22.6723 37.1417 22.2183C36.8629 21.7643 36.4642 21.3995 35.9913 21.1658ZM26.1152 18.212C26.1719 18.1836 26.2342 18.1689 26.2973 18.1689C26.3605 18.1689 26.4228 18.1836 26.4794 18.212L35.0016 22.4999L26.3476 26.8565C26.2909 26.8849 26.2286 26.8996 26.1655 26.8996C26.1023 26.8996 26.04 26.8849 25.9834 26.8565L17.4597 22.5681L26.1152 18.212Z" fill="white"/>
</svg>
