<svg width="53" height="53" viewBox="0 0 53 53" fill="none" xmlns="http://www.w3.org/2000/svg">
<path d="M15.0319 37.5675L16.5556 31.9684C15.5516 30.2473 15.0241 28.2898 15.0274 26.2972C15.0274 20.0727 20.0731 15.027 26.2976 15.027C32.5222 15.027 37.5679 20.0727 37.5679 26.2972C37.5679 32.5218 32.5222 37.5675 26.2976 37.5675C24.3059 37.5707 22.3493 37.0436 20.6287 36.0404L15.0319 37.5675ZM22.2302 21.0092C22.0846 21.0183 21.9424 21.0566 21.8121 21.1219C21.6898 21.1912 21.5782 21.2777 21.4807 21.3789C21.3455 21.5063 21.2688 21.6167 21.1866 21.7238C20.77 22.2659 20.546 22.9313 20.5498 23.6149C20.552 24.1672 20.6963 24.7048 20.9217 25.2074C21.3827 26.224 22.1411 27.3003 23.1431 28.2977C23.3843 28.5378 23.6198 28.779 23.8734 29.0032C25.1169 30.0981 26.5988 30.8877 28.2012 31.3091L28.8424 31.4072C29.0509 31.4184 29.2594 31.4027 29.4691 31.3925C29.7973 31.3756 30.1178 31.2867 30.4079 31.1322C30.5555 31.0562 30.6995 30.9734 30.8395 30.8842C30.8395 30.8842 30.888 30.8527 30.9804 30.7828C31.1326 30.6701 31.2261 30.5901 31.3523 30.4582C31.4459 30.3613 31.527 30.2475 31.589 30.1179C31.6769 29.9342 31.7648 29.5836 31.8009 29.2917C31.8279 29.0686 31.82 28.9469 31.8167 28.8714C31.8122 28.7508 31.7119 28.6257 31.6025 28.5727L30.9466 28.2786C30.9466 28.2786 29.9661 27.8514 29.3676 27.5787C29.3045 27.5512 29.2369 27.5355 29.1682 27.5325C29.091 27.5245 29.0131 27.5332 28.9397 27.5579C28.8662 27.5826 28.7988 27.6227 28.7421 27.6756V27.6733C28.7365 27.6733 28.661 27.7376 27.8462 28.7249C27.7994 28.7877 27.735 28.8352 27.6611 28.8613C27.5872 28.8874 27.5073 28.8909 27.4314 28.8714C27.358 28.8517 27.286 28.8269 27.2161 28.797C27.0764 28.7384 27.0279 28.7158 26.9321 28.6741L26.9265 28.6719C26.2817 28.3904 25.6848 28.0101 25.1571 27.5449C25.0151 27.4209 24.8832 27.2856 24.748 27.1549C24.3046 26.7303 23.9181 26.2499 23.5984 25.7258L23.5319 25.6188C23.4841 25.5468 23.4455 25.4692 23.4169 25.3877C23.3741 25.2221 23.4857 25.0891 23.4857 25.0891C23.4857 25.0891 23.7596 24.7893 23.8869 24.627C23.993 24.4921 24.0919 24.3518 24.1833 24.2066C24.3163 23.9925 24.358 23.7727 24.2881 23.6025C23.9726 22.8316 23.6457 22.0641 23.3099 21.3023C23.2434 21.1512 23.0462 21.043 22.867 21.0216C22.8061 21.0149 22.7452 21.0081 22.6844 21.0036C22.533 20.9961 22.3814 20.9987 22.2302 21.0092Z" fill="white"/>
</svg>
