<svg width="20" height="20" viewBox="0 0 20 20" fill="none" xmlns="http://www.w3.org/2000/svg">
<path d="M14.375 5.15625H3.125C3.00068 5.15625 2.88145 5.20564 2.79354 5.29354C2.70564 5.38145 2.65625 5.50068 2.65625 5.625V16.875C2.65625 16.9993 2.70564 17.1185 2.79354 17.2065C2.88145 17.2944 3.00068 17.3438 3.125 17.3438H14.375C14.4993 17.3438 14.6185 17.2944 14.7065 17.2065C14.7944 17.1185 14.8438 16.9993 14.8438 16.875V5.625C14.8438 5.50068 14.7944 5.38145 14.7065 5.29354C14.6185 5.20564 14.4993 5.15625 14.375 5.15625ZM13.9062 16.4062H3.59375V6.09375H13.9062V16.4062ZM17.3438 3.125V14.375C17.3438 14.4993 17.2944 14.6185 17.2065 14.7065C17.1185 14.7944 16.9993 14.8438 16.875 14.8438C16.7507 14.8438 16.6315 14.7944 16.5435 14.7065C16.4556 14.6185 16.4062 14.4993 16.4062 14.375V3.59375H5.625C5.50068 3.59375 5.38145 3.54436 5.29354 3.45646C5.20564 3.36855 5.15625 3.24932 5.15625 3.125C5.15625 3.00068 5.20564 2.88145 5.29354 2.79354C5.38145 2.70564 5.50068 2.65625 5.625 2.65625H16.875C16.9993 2.65625 17.1185 2.70564 17.2065 2.79354C17.2944 2.88145 17.3438 3.00068 17.3438 3.125Z" fill="#767676"/>
</svg>
