<svg width="22" height="22" viewBox="0 0 22 22" fill="none" xmlns="http://www.w3.org/2000/svg">
<g clip-path="url(#clip0_1_17915)">
<path d="M17.4165 3.66669H4.58317C4.07691 3.66669 3.6665 4.07709 3.6665 4.58335V17.4167C3.6665 17.923 4.07691 18.3334 4.58317 18.3334H17.4165C17.9228 18.3334 18.3332 17.923 18.3332 17.4167V4.58335C18.3332 4.07709 17.9228 3.66669 17.4165 3.66669Z" stroke="#1C1C1C" stroke-linejoin="round"/>
<path d="M13.75 8.25H8.25V13.75H13.75V8.25Z" stroke="#1C1C1C" stroke-linejoin="round"/>
<path d="M6.8335 0.916687V3.66669" stroke="#1C1C1C" stroke-linecap="round" stroke-linejoin="round"/>
<path d="M6.8335 18.3333V21.0833" stroke="#1C1C1C" stroke-linecap="round" stroke-linejoin="round"/>
<path d="M11 0.916687V3.66669" stroke="#1C1C1C" stroke-linecap="round" stroke-linejoin="round"/>
<path d="M11 18.3333V21.0833" stroke="#1C1C1C" stroke-linecap="round" stroke-linejoin="round"/>
<path d="M15.1665 0.916687V3.66669" stroke="#1C1C1C" stroke-linecap="round" stroke-linejoin="round"/>
<path d="M15.1665 18.3333V21.0833" stroke="#1C1C1C" stroke-linecap="round" stroke-linejoin="round"/>
<path d="M0.916504 6.83337H3.6665" stroke="#1C1C1C" stroke-linecap="round" stroke-linejoin="round"/>
<path d="M18.3335 6.83337H21.0835" stroke="#1C1C1C" stroke-linecap="round" stroke-linejoin="round"/>
<path d="M0.916504 11H3.6665" stroke="#1C1C1C" stroke-linecap="round" stroke-linejoin="round"/>
<path d="M18.3335 11H21.0835" stroke="#1C1C1C" stroke-linecap="round" stroke-linejoin="round"/>
<path d="M0.916504 15.1666H3.6665" stroke="#1C1C1C" stroke-linecap="round" stroke-linejoin="round"/>
<path d="M18.3335 15.1666H21.0835" stroke="#1C1C1C" stroke-linecap="round" stroke-linejoin="round"/>
</g>
<defs>
<clipPath id="clip0_1_17915">
<rect width="22" height="22" fill="white"/>
</clipPath>
</defs>
</svg>
