<svg width="20" height="20" viewBox="0 0 20 20" fill="none" xmlns="http://www.w3.org/2000/svg">
<path d="M19.0357 9.87344C19.0092 9.81406 18.3701 8.39766 16.9397 6.96719C15.6147 5.64219 13.3357 4.0625 9.99981 4.0625C6.66387 4.0625 4.38497 5.64219 3.05997 6.96719C1.6295 8.39766 0.990435 9.81406 0.963873 9.87344C0.946477 9.9135 0.9375 9.95671 0.9375 10.0004C0.9375 10.0441 0.946477 10.0873 0.963873 10.1273C0.990435 10.1875 1.6295 11.6031 3.05997 13.0336C4.38809 14.3617 6.66465 15.9375 9.99981 15.9375C13.335 15.9375 15.6147 14.3586 16.9397 13.0336C18.3701 11.6031 19.0092 10.1875 19.0357 10.1273C19.0531 10.0873 19.0621 10.0441 19.0621 10.0004C19.0621 9.95671 19.0531 9.9135 19.0357 9.87344ZM16.4811 12.6078C14.6787 14.4047 12.4967 15.3125 9.99669 15.3125C7.49669 15.3125 5.31778 14.4023 3.51231 12.6078C2.7441 11.8417 2.09804 10.9622 1.59669 10C2.09897 9.03761 2.7461 8.15809 3.51544 7.39219C5.3209 5.59766 7.49981 4.6875 9.99981 4.6875C12.4998 4.6875 14.6787 5.59766 16.4842 7.39219C17.2534 8.15817 17.9005 9.03768 18.4029 10C17.9006 10.9624 17.2535 11.8419 16.4842 12.6078H16.4811ZM9.99981 6.5625C9.31994 6.5625 8.65533 6.76411 8.09004 7.14182C7.52474 7.51954 7.08415 8.0564 6.82397 8.68453C6.5638 9.31265 6.49572 10.0038 6.62836 10.6706C6.761 11.3374 7.08839 11.9499 7.56913 12.4307C8.04987 12.9114 8.66238 13.2388 9.32919 13.3714C9.996 13.5041 10.6872 13.436 11.3153 13.1758C11.9434 12.9157 12.4803 12.4751 12.858 11.9098C13.2357 11.3445 13.4373 10.6799 13.4373 10C13.4363 9.08864 13.0738 8.21489 12.4293 7.57046C11.7849 6.92603 10.9112 6.56353 9.99981 6.5625ZM9.99981 12.8125C9.44355 12.8125 8.89978 12.6475 8.43727 12.3385C7.97476 12.0295 7.61427 11.5902 7.4014 11.0763C7.18853 10.5624 7.13283 9.99688 7.24135 9.45131C7.34987 8.90574 7.61774 8.4046 8.01107 8.01126C8.40441 7.61793 8.90555 7.35006 9.45112 7.24154C9.99669 7.13302 10.5622 7.18872 11.0761 7.40159C11.59 7.61446 12.0293 7.97495 12.3383 8.43746C12.6474 8.89997 12.8123 9.44374 12.8123 10C12.8123 10.7459 12.516 11.4613 11.9885 11.9887C11.4611 12.5162 10.7457 12.8125 9.99981 12.8125Z" fill="#1C1C1C"/>
</svg>
