<svg width="26" height="25" viewBox="0 0 26 25" fill="none" xmlns="http://www.w3.org/2000/svg">
<path d="M9.75 3.125H4.33333C3.73502 3.125 3.25 3.59137 3.25 4.16667V9.375C3.25 9.95031 3.73502 10.4167 4.33333 10.4167H9.75C10.3483 10.4167 10.8333 9.95031 10.8333 9.375V4.16667C10.8333 3.59137 10.3483 3.125 9.75 3.125Z" stroke="#BF0204" stroke-linejoin="round"/>
<path d="M9.75 14.5834H4.33333C3.73502 14.5834 3.25 15.0497 3.25 15.625V20.8334C3.25 21.4087 3.73502 21.875 4.33333 21.875H9.75C10.3483 21.875 10.8333 21.4087 10.8333 20.8334V15.625C10.8333 15.0497 10.3483 14.5834 9.75 14.5834Z" stroke="#BF0204" stroke-linejoin="round"/>
<path d="M21.6667 3.125H16.2501C15.6518 3.125 15.1667 3.59137 15.1667 4.16667V9.375C15.1667 9.95031 15.6518 10.4167 16.2501 10.4167H21.6667C22.2651 10.4167 22.7501 9.95031 22.7501 9.375V4.16667C22.7501 3.59137 22.2651 3.125 21.6667 3.125Z" stroke="#BF0204" stroke-linejoin="round"/>
<path d="M21.6667 14.5834H16.2501C15.6518 14.5834 15.1667 15.0497 15.1667 15.625V20.8334C15.1667 21.4087 15.6518 21.875 16.2501 21.875H21.6667C22.2651 21.875 22.7501 21.4087 22.7501 20.8334V15.625C22.7501 15.0497 22.2651 14.5834 21.6667 14.5834Z" stroke="#BF0204" stroke-linejoin="round"/>
</svg>
