<svg width="24" height="24" viewBox="0 0 24 24" fill="none" xmlns="http://www.w3.org/2000/svg">
<path d="M8.41298 9.00491L12.293 12.8849L16.173 9.00491C16.2656 8.91233 16.3755 8.83889 16.4964 8.78878C16.6174 8.73868 16.747 8.71289 16.878 8.71289C17.0089 8.71289 17.1386 8.73868 17.2595 8.78878C17.3805 8.83889 17.4904 8.91233 17.583 9.00491C17.6756 9.09749 17.749 9.2074 17.7991 9.32837C17.8492 9.44933 17.875 9.57898 17.875 9.70991C17.875 9.84084 17.8492 9.97049 17.7991 10.0915C17.749 10.2124 17.6756 10.3223 17.583 10.4149L12.993 15.0049C12.603 15.3949 11.973 15.3949 11.583 15.0049L6.99298 10.4149C6.90028 10.3224 6.82673 10.2125 6.77655 10.0915C6.72637 9.97056 6.70054 9.84088 6.70054 9.70991C6.70054 9.57894 6.72637 9.44926 6.77655 9.32829C6.82673 9.20731 6.90028 9.09742 6.99298 9.00491C7.38298 8.62491 8.02298 8.61491 8.41298 9.00491Z" fill="white"/>
</svg>
