<svg width="24" height="24" viewBox="0 0 24 24" fill="none" xmlns="http://www.w3.org/2000/svg">
<path d="M9.00491 15.587L12.8849 11.707L9.00491 7.82702C8.91233 7.73444 8.83889 7.62453 8.78878 7.50356C8.73868 7.3826 8.71289 7.25295 8.71289 7.12202C8.71289 6.99109 8.73868 6.86144 8.78878 6.74048C8.83889 6.61951 8.91233 6.5096 9.00491 6.41702C9.09749 6.32444 9.2074 6.251 9.32837 6.20089C9.44933 6.15079 9.57898 6.125 9.70991 6.125C9.84084 6.125 9.97049 6.15079 10.0915 6.20089C10.2124 6.251 10.3223 6.32444 10.4149 6.41702L15.0049 11.007C15.3949 11.397 15.3949 12.027 15.0049 12.417L10.4149 17.007C10.3224 17.0997 10.2125 17.1733 10.0915 17.2235C9.97056 17.2736 9.84088 17.2995 9.70991 17.2995C9.57894 17.2995 9.44926 17.2736 9.32829 17.2235C9.20731 17.1733 9.09742 17.0997 9.00491 17.007C8.62491 16.617 8.61491 15.977 9.00491 15.587Z" fill="#BF0204"/>
</svg>
