<svg width="50" height="49" viewBox="0 0 50 49" fill="none" xmlns="http://www.w3.org/2000/svg">
<path d="M24.25 1H4.875C2.7349 1 1 2.7349 1 4.875V33.2917C1 35.4318 2.7349 37.1667 4.875 37.1667H43.625C45.7652 37.1667 47.5 35.4318 47.5 33.2917V26.8333" stroke="#BF0204" stroke-width="2" stroke-linecap="round" stroke-linejoin="round"/>
<path d="M24.25 37.1666V47.5" stroke="#BF0204" stroke-width="2" stroke-linecap="round" stroke-linejoin="round"/>
<path d="M11.332 47.5H37.1654" stroke="#BF0204" stroke-width="2" stroke-linecap="round" stroke-linejoin="round"/>
<path d="M41.043 13.9166C43.1831 13.9166 44.918 12.1817 44.918 10.0416C44.918 7.90152 43.1831 6.16663 41.043 6.16663C38.9029 6.16663 37.168 7.90152 37.168 10.0416C37.168 12.1817 38.9029 13.9166 41.043 13.9166Z" stroke="#BF0204" stroke-width="2"/>
<path d="M41.043 19.0833V13.9166" stroke="#BF0204" stroke-width="2" stroke-linecap="round" stroke-linejoin="round"/>
<path d="M41.043 6.16667V1" stroke="#BF0204" stroke-width="2" stroke-linecap="round" stroke-linejoin="round"/>
<path d="M33.2109 14.5625L37.6854 11.9791" stroke="#BF0204" stroke-width="2" stroke-linecap="round" stroke-linejoin="round"/>
<path d="M44.3984 8.10421L48.8729 5.52087" stroke="#BF0204" stroke-width="2" stroke-linecap="round" stroke-linejoin="round"/>
<path d="M33.2109 5.52087L37.6854 8.10421" stroke="#BF0204" stroke-width="2" stroke-linecap="round" stroke-linejoin="round"/>
<path d="M44.3984 11.9791L48.8729 14.5625" stroke="#BF0204" stroke-width="2" stroke-linecap="round" stroke-linejoin="round"/>
</svg>
