<svg width="30" height="29" viewBox="0 0 30 29" fill="none" xmlns="http://www.w3.org/2000/svg">
<path d="M10.6225 4.64355C11.0767 4.64355 11.495 4.88161 11.7155 5.2654L13.2445 7.92785C13.4447 8.27645 13.4541 8.6981 13.2696 9.05474L11.7966 11.9026C11.7966 11.9026 12.2235 14.0241 14.01 15.751C15.7965 17.478 17.9838 17.8835 17.9838 17.8835L20.9294 16.4598C21.2985 16.2814 21.735 16.2906 22.0958 16.4845L24.8579 17.9689C25.2545 18.1821 25.5005 18.5863 25.5005 19.025V22.0902C25.5005 23.6512 24.0005 24.7787 22.4705 24.2796C19.328 23.2546 14.4501 21.303 11.3584 18.3143C8.26655 15.3256 6.24768 10.6102 5.18734 7.57254C4.67108 6.09348 5.83739 4.64355 7.45218 4.64355H10.6225Z" fill="white"/>
</svg>
