<svg width="35" height="35" viewBox="0 0 35 35" fill="none" xmlns="http://www.w3.org/2000/svg">
<path d="M25.2342 10C25.7581 10 26.1533 10.4833 25.9419 11.3822L23.3777 24.0931C23.1985 24.9968 22.6792 25.2143 21.9624 24.7939L15.846 20.043C15.8223 20.0251 15.8029 20.0015 15.7896 19.9742C15.7763 19.9469 15.7693 19.9166 15.7693 19.8859C15.7693 19.8552 15.7763 19.825 15.7896 19.7976C15.8029 19.7703 15.8223 19.7468 15.846 19.7289L22.909 13.0206C23.2307 12.721 22.8401 12.576 22.4173 12.8466L13.5529 18.7284C13.526 18.7469 13.4955 18.7586 13.4636 18.7628C13.4318 18.767 13.3995 18.7635 13.3691 18.7526L9.6055 17.5008C8.76915 17.2447 8.76915 16.6406 9.79391 16.2104L24.8528 10.1015C24.9723 10.0412 25.1019 10.0067 25.2342 10Z" fill="#303451"/>
</svg>
