<svg width="35" height="35" viewBox="0 0 35 35" fill="none" xmlns="http://www.w3.org/2000/svg">
<path d="M10.003 25L11.017 21.274C10.3489 20.1286 9.99783 18.826 10 17.5C10 13.3577 13.3578 10 17.5 10C21.6423 10 25 13.3577 25 17.5C25 21.6422 21.6423 25 17.5 25C16.1746 25.0021 14.8725 24.6514 13.7275 23.9837L10.003 25ZM14.7933 13.981C14.6964 13.987 14.6018 14.0125 14.515 14.056C14.4336 14.1021 14.3594 14.1597 14.2945 14.227C14.2045 14.3117 14.1535 14.3852 14.0988 14.4565C13.8216 14.8172 13.6725 15.2601 13.675 15.715C13.6765 16.0825 13.7725 16.4402 13.9225 16.7747C14.2293 17.4512 14.734 18.1675 15.4008 18.8312C15.5613 18.991 15.718 19.1515 15.8868 19.3007C16.7143 20.0293 17.7004 20.5548 18.7668 20.8352L19.1935 20.9005C19.3323 20.908 19.471 20.8975 19.6105 20.8907C19.8289 20.8795 20.0422 20.8203 20.2353 20.7175C20.3335 20.6669 20.4293 20.6118 20.5225 20.5525C20.5225 20.5525 20.5548 20.5315 20.6163 20.485C20.7175 20.41 20.7798 20.3567 20.8638 20.269C20.926 20.2045 20.98 20.1287 21.0213 20.0425C21.0798 19.9202 21.1383 19.687 21.1623 19.4927C21.1803 19.3442 21.175 19.2632 21.1728 19.213C21.1698 19.1327 21.103 19.0495 21.0303 19.0142L20.5938 18.8185C20.5938 18.8185 19.9413 18.5342 19.543 18.3527C19.501 18.3344 19.456 18.324 19.4103 18.322C19.3589 18.3167 19.3071 18.3225 19.2582 18.3389C19.2093 18.3554 19.1645 18.3821 19.1268 18.4172V18.4157C19.123 18.4157 19.0728 18.4585 18.5305 19.1155C18.4994 19.1573 18.4565 19.1889 18.4074 19.2063C18.3582 19.2236 18.305 19.226 18.2545 19.213C18.2056 19.1999 18.1578 19.1834 18.1113 19.1635C18.0183 19.1245 17.986 19.1095 17.9223 19.0817L17.9185 19.0802C17.4894 18.8929 17.0922 18.6399 16.741 18.3302C16.6465 18.2477 16.5588 18.1577 16.4688 18.0707C16.1737 17.7882 15.9165 17.4685 15.7038 17.1197L15.6595 17.0485C15.6277 17.0006 15.602 16.949 15.583 16.8947C15.5545 16.7845 15.6288 16.696 15.6288 16.696C15.6288 16.696 15.811 16.4965 15.8958 16.3885C15.9663 16.2987 16.0322 16.2054 16.093 16.1087C16.1815 15.9662 16.2093 15.82 16.1628 15.7067C15.9528 15.1937 15.7353 14.683 15.5118 14.176C15.4675 14.0755 15.3363 14.0035 15.217 13.9892C15.1765 13.9847 15.136 13.9802 15.0955 13.9772C14.9948 13.9722 14.8939 13.974 14.7933 13.981Z" fill="#303451"/>
</svg>
