<svg width="35" height="35" viewBox="0 0 35 35" fill="none" xmlns="http://www.w3.org/2000/svg">
<path d="M23.951 14.0851L18.106 11.1433C17.9174 11.049 17.7101 11 17.5 11C17.2899 11 17.0826 11.049 16.894 11.1433L11.049 14.0851C10.7343 14.2406 10.4689 14.4834 10.2834 14.7855C10.0979 15.0876 9.99964 15.4369 10 15.7932V22.0899C10 23.1432 10.8511 24 11.8974 24H23.1026C24.1489 24 25 23.1432 25 22.0899V15.7932C25.0004 15.4369 24.9021 15.0876 24.7166 14.7855C24.5311 14.4834 24.2657 14.2406 23.951 14.0851ZM17.3788 12.1194C17.4165 12.1006 17.458 12.0908 17.5 12.0908C17.542 12.0908 17.5835 12.1006 17.6212 12.1194L23.2924 14.9729L17.5335 17.8721C17.4958 17.891 17.4543 17.9008 17.4123 17.9008C17.3703 17.9008 17.3288 17.891 17.2911 17.8721L11.6189 15.0183L17.3788 12.1194Z" fill="#303451"/>
</svg>
