<svg width="22" height="22" viewBox="0 0 22 22" fill="none" xmlns="http://www.w3.org/2000/svg">
<path d="M13.8863 8.60687C13.8863 8.60687 12.4063 12.7788 11.7029 13.5071C10.9996 14.2354 9.83894 14.2557 9.11061 13.5523C8.38222 12.849 8.36197 11.6884 9.06532 10.96C9.76868 10.2317 13.8863 8.60687 13.8863 8.60687Z" stroke="#333333" stroke-linejoin="round"/>
<path d="M17.8059 17.8059C19.5477 16.0641 20.625 13.6579 20.625 11C20.625 5.68425 16.3158 1.375 11 1.375C5.68425 1.375 1.375 5.68425 1.375 11C1.375 13.6579 2.45232 16.0641 4.1941 17.8059" stroke="#333333" stroke-linecap="round" stroke-linejoin="round"/>
<path d="M11 1.83331V3.66665" stroke="#333333" stroke-linecap="round" stroke-linejoin="round"/>
<path d="M17.8042 5.10681L16.3794 6.26053" stroke="#333333" stroke-linecap="round" stroke-linejoin="round"/>
<path d="M19.4895 12.4817L17.7031 12.0693" stroke="#333333" stroke-linecap="round" stroke-linejoin="round"/>
<path d="M2.51025 12.4817L4.2966 12.0693" stroke="#333333" stroke-linecap="round" stroke-linejoin="round"/>
<path d="M4.1958 5.10675L5.62056 6.26051" stroke="#333333" stroke-linecap="round" stroke-linejoin="round"/>
</svg>
