<svg width="54" height="54" viewBox="0 0 54 54" fill="none" xmlns="http://www.w3.org/2000/svg">
<path d="M39.7802 4.47356C35.9737 2.2647 31.5511 1 26.8333 1C12.566 1 1 12.566 1 26.8333C1 41.1007 12.566 52.6667 26.8333 52.6667C41.1007 52.6667 52.6667 41.1007 52.6667 26.8333C52.6667 22.1481 51.4194 17.7541 49.2387 13.9654" stroke="#BF0204" stroke-width="2" stroke-linecap="round" stroke-linejoin="round"/>
<path d="M37.1002 16.5651C37.1002 16.5651 32.7244 28.2475 30.7068 30.2653C28.6891 32.283 25.4177 32.283 23.4 30.2653C21.3823 28.2475 21.3823 24.9761 23.4 22.9584C25.4177 20.9407 37.1002 16.5651 37.1002 16.5651Z" stroke="#BF0204" stroke-width="2" stroke-linejoin="round"/>
</svg>
