<svg width="22" height="22" viewBox="0 0 22 22" fill="none" xmlns="http://www.w3.org/2000/svg">
<path d="M11.0002 14.6666C16.0628 14.6666 20.1668 13.025 20.1668 11C20.1668 8.97493 16.0628 7.33331 11.0002 7.33331C5.93755 7.33331 1.8335 8.97493 1.8335 11C1.8335 13.025 5.93755 14.6666 11.0002 14.6666Z" stroke="#1C1C1C" stroke-linecap="round" stroke-linejoin="round"/>
<path d="M14.6668 11C14.6668 16.0626 13.0252 20.1666 11.0002 20.1666C8.97511 20.1666 7.3335 16.0626 7.3335 11C7.3335 5.93737 8.97511 1.83331 11.0002 1.83331C13.0252 1.83331 14.6668 5.93737 14.6668 11Z" stroke="#1C1C1C" stroke-linecap="round" stroke-linejoin="round"/>
<path d="M11.0002 20.1666C16.0628 20.1666 20.1668 16.0626 20.1668 11C20.1668 5.93737 16.0628 1.83331 11.0002 1.83331C5.93755 1.83331 1.8335 5.93737 1.8335 11C1.8335 16.0626 5.93755 20.1666 11.0002 20.1666Z" stroke="#1C1C1C" stroke-linejoin="round"/>
</svg>
