<svg width="16" height="16" viewBox="0 0 16 16" fill="none" xmlns="http://www.w3.org/2000/svg">
<path d="M13.8064 2.43625C13.8064 2.43625 15.1015 1.93125 14.9936 3.15768C14.9576 3.66269 14.6339 5.43019 14.382 7.34199L13.5186 13.0052C13.5186 13.0052 13.4467 13.8349 12.7991 13.9792C12.1516 14.1234 11.1803 13.4742 11.0004 13.3299C10.8565 13.2217 8.30227 11.5984 7.40287 10.8049C7.15103 10.5884 6.86323 10.1556 7.43883 9.65055L11.2162 6.04342C11.6479 5.61055 12.0796 4.60055 10.2809 5.82699L5.24437 9.25379C5.24437 9.25379 4.66877 9.61449 3.58953 9.28985L1.25114 8.56842C1.25114 8.56842 0.387737 8.02735 1.86272 7.48625C5.46023 5.79089 9.88517 4.05945 13.8064 2.43625Z" fill="#AAAAAA"/>
</svg>
