<svg width="71" height="71" viewBox="0 0 71 71" fill="none" xmlns="http://www.w3.org/2000/svg">
<path d="M35.5 0C15.904 0 0 15.904 0 35.5C0 55.096 15.904 71 35.5 71C55.096 71 71 55.096 71 35.5C71 15.904 55.096 0 35.5 0ZM51.972 24.14C51.4395 29.749 49.132 43.381 47.9605 49.6645C47.4635 52.327 46.4695 53.2145 45.5465 53.321C43.4875 53.4985 41.9255 51.972 39.9375 50.6585C36.8135 48.5995 35.0385 47.3215 32.021 45.3335C28.5065 43.026 30.7785 41.748 32.802 39.689C33.3345 39.1565 42.4225 30.885 42.6 30.1395C42.6247 30.0266 42.6214 29.9094 42.5904 29.798C42.5595 29.6866 42.5019 29.5845 42.4225 29.5005C42.2095 29.323 41.9255 29.394 41.677 29.4295C41.3575 29.5005 36.3875 32.802 26.696 39.334C25.276 40.2925 23.998 40.7895 22.862 40.754C21.584 40.7185 19.17 40.044 17.3595 39.4405C15.123 38.7305 13.3835 38.34 13.5255 37.0975C13.5965 36.4585 14.484 35.8195 16.1525 35.145C26.5185 30.6365 33.4055 27.6545 36.849 26.2345C46.718 22.1165 48.7415 21.4065 50.0905 21.4065C50.3745 21.4065 51.049 21.4775 51.475 21.8325C51.83 22.1165 51.9365 22.507 51.972 22.791C51.9365 23.004 52.0075 23.643 51.972 24.14Z" fill="#30A8E4"/>
</svg>
